# xmcd
#
# Track frame offsets:
#	150
#	6698
#	13878
#	25999
#	34540
#	47619
#	69823
#	80982
#	109120
#	124033
#	134287
#	143034
#	168012
#	181850
#	196171
#	211207
#	219963
#
# Disc length: 3206 seconds
#
# Revision: 1
# Processed by: cddbd v1.5.2PL0 Copyright (c) Steve Scherf et al.
# Submitted via: audiograbber 1.83.01
#
DISCID=e40c8411
DTITLE=Key Largo - KEY LARGO - The Complete Blue Horizon Sessions
DYEAR=1969
DGENRE=Blues
TTITLE0=Big Chief (Part 1)
TTITLE1=Axe And The Wind
TTITLE2=Give It Up
TTITLE3=What Do I Do With It (Now I've Got It)
TTITLE4=Stranger In My Home Town
TTITLE5=That Did It
TTITLE6=Big Chief (Part 2)
TTITLE7=Come And Get It, Baby (If You Want It) Bit One/Get In It (Together)/Com
TTITLE7=e And Get It, Baby (If You Want It) Bit Two
TTITLE8=O.S. Blues
TTITLE9=Wrapped Up In Love Again
TTITLE10=Biscayne Bug
TTITLE11=As The Years Go Passing By
TTITLE12=Voodoo Rhythm
TTITLE13=Sweet Home Chicago (Slamhammer demo)
TTITLE14=All Your Love (Slamhammer demo)
TTITLE15=Soul Survivor (Slamhammer demo)
TTITLE16=So Many Roads (Slamhammer demo)
EXTD=
EXTT0=
EXTT1=
EXTT2=
EXTT3=
EXTT4=
EXTT5=
EXTT6=
EXTT7=
EXTT8=
EXTT9=
EXTT10=
EXTT11=
EXTT12=
EXTT13=
EXTT14=
EXTT15=
EXTT16=
PLAYORDER=
